HIERARCHY
ROOT Hips
{
	OFFSET	0.00	0.00	0.00
	CHANNELS 6 Xposition Yposition Zposition Zrotation Xrotation Yrotation
	JOINT Spine
	{
		OFFSET	 0.00	0.01	 0.00
		CHANNELS 3 Zrotation Xrotation Yrotation
		JOINT Spine1
		{
			OFFSET	 0.00	 2.45913012437421	 0.00
			CHANNELS 3 Zrotation Xrotation Yrotation
            JOINT Neck
            {
                OFFSET	 0.00	 2.48462964506057	 0.00
                CHANNELS 3 Zrotation Xrotation Yrotation
                JOINT Head
                {
                    OFFSET	 0.00	 0.927524780924562	 0.00
                    CHANNELS 3 Zrotation Xrotation Yrotation
                    End Site 
                    {
                        OFFSET	 0.00	 1.14999962169752	 0.00
                    }
                }
            }
			JOINT LeftShoulder
			{
				OFFSET	 0.00	 2.48462964506057	 0.00
				CHANNELS 3 Zrotation Xrotation Yrotation
				JOINT LeftUpArm
				{
					OFFSET	 0.00	 1.24881979654096	 0.00
					CHANNELS 3 Zrotation Xrotation Yrotation
					JOINT LeftForeArm
					{
						OFFSET	 0.00	2.59758046908119	 0.00
						CHANNELS 3 Zrotation Xrotation Yrotation
						JOINT LeftHand
						{
							OFFSET	 0.00	2.45542024364365	 0.00
							CHANNELS 3 Zrotation Xrotation Yrotation
							JOINT LeftHandThumb 
							{
								OFFSET	 0.00	0.00	 0.00
								CHANNELS 3 Zrotation Xrotation Yrotation
								End Site
								{
									OFFSET	 0.00	0.00	1.00000003353624
								}
							}
							JOINT L_Wrist_End 
							{
								OFFSET	 0.00	0.99999967115358	 0.00
								CHANNELS 3 Zrotation Xrotation Yrotation
								End Site 
								{
									OFFSET	 0.00	 0.00	 0.00
								}
							}
						}
					}
				}
			}
			JOINT RightShoulder
			{
				OFFSET	 0.00	 2.48462964506057	 0.00
				CHANNELS 3 Zrotation Xrotation Yrotation
				JOINT RightUpArm
				{
					OFFSET	 0.00	 1.24881979654096	 0.00
					CHANNELS 3 Zrotation Xrotation Yrotation
					JOINT RightForeArm
					{
						OFFSET	 0.00	2.59758046908119	 0.00
						CHANNELS 3 Zrotation Xrotation Yrotation
						JOINT RightHand
						{
							OFFSET	 0.00	2.45542024364365	 0.00
							CHANNELS 3 Zrotation Xrotation Yrotation
							JOINT RightHandThumb 
							{
								OFFSET	 0.00	0.00	 0.00
								CHANNELS 3 Zrotation Xrotation Yrotation
								End Site
								{
									OFFSET	 0.00	0.00	1.00000003353624
								}
							}
							JOINT R_Wrist_End 
							{
								OFFSET	 0.00	0.99999967115358	 0.00
								CHANNELS 3 Zrotation Xrotation Yrotation
								End Site 
								{
									OFFSET	 0.00	 0.00	 0.00
								}
							}
						}
					}
				}
			}
		}
	}
	JOINT LeftUpLeg
	{
		OFFSET	 1.2719394002717	 0.00	 0.00
		CHANNELS 3 Zrotation Xrotation Yrotation
		JOINT LeftLowLeg
		{
			OFFSET	 0.00	-4.3429100912261	 0.00
			CHANNELS 3 Zrotation Xrotation Yrotation
			JOINT LeftFoot
			{
				OFFSET	 0.00	-4.48767017425826	 0.00
				CHANNELS 3 Zrotation Xrotation Yrotation
				JOINT LeftToeBase
                {
                    OFFSET	 0.00	0.00	 1.51507020887566
                    CHANNELS 3 Zrotation Xrotation Yrotation
                    End Site 
                    {
                        OFFSET	 0.00	0.00	 0.75000010571191
                    }
                }
			}
		}
	}
	JOINT RightUpLeg
	{
		OFFSET	 -1.2719393604653	 0.00	 0.00
		CHANNELS 3 Zrotation Xrotation Yrotation
		JOINT RightLowLeg
		{
			OFFSET	 0.00	-4.3429100912261	 0.00
			CHANNELS 3 Zrotation Xrotation Yrotation
			JOINT RightFoot
			{
				OFFSET	 0.00	-4.48767017425826	 0.00
				CHANNELS 3 Zrotation Xrotation Yrotation
				JOINT RightToeBase
                {
                    OFFSET	 0.00	0.00	 1.51507020887566
                    CHANNELS 3 Zrotation Xrotation Yrotation
                    End Site 
                    {
                        OFFSET	 0.00	0.00	 0.749999965609858
                    }
                }   
			}
		}
	}
}
MOTION 
Frames:	10 
Frame Time: 0.02 
 -2.850989990234375 -1.2931100463867187 9.274000244140625 59.3259 86.7349 2820.4 2.54098 -16.0923 1.41951 -7.10319 18.297 2.35612 18.8233 50.5173 350.87 -51.2289 -80.7336 -404.035 -115.7279 -2.66541 369.149 -45.7569 8.86802 20.2808 0.0 21.1014 0.0 9.44384 -18.0944 -10.1304 0.0 0.0 0.0 0.0 0.0 0.0 120.475204 -5.85741 -365.667 47.485 5.38496 -15.7298 0.0 23.7355 0.0 3.84927 -9.82589 22.3364 0.0 0.0 0.0 0.0 0.0 0.0 -4.67742 1.48388 -10.3556 0.0 16.2136 0.0 -8.28028 -6.2775993 14.9772 0.0 -22.22166 0.0 3.11488 1.55243 11.9593 0.0 21.5476 0.0 26.3349 -14.707001 -8.30664 0.0 -18.24941 0.0 
  -2.8505899047851564 -1.2898599243164062 9.27427978515625 58.9107 86.7271 2820.77 2.50753 -16.0142 1.39167 -7.06469 18.3175 2.36519 18.765 50.4386 350.945 -51.58 -80.8089 -404.428 -115.7444 -2.6486 369.143 -45.713 8.85655 20.433 0.0 21.0357 0.0 10.4 -18.2348 -9.5831 0.0 0.0 0.0 0.0 0.0 0.0 120.469604 -5.87567 -365.644 47.4353 5.3436 -15.6699 0.0 23.6462 0.0 3.74178 -9.58263 22.2543 0.0 0.0 0.0 0.0 0.0 0.0 -4.6683 1.49567 -10.2697 0.0 16.1947 0.0 -8.25056 -6.2616997 14.9381 0.0 -22.18683 0.0 3.10678 1.54223 11.9173 0.0 21.5543 0.0 26.3437 -14.666201 -8.24765 0.0 -18.24988 0.0 
  -2.85 -1.286230010986328 9.274429931640626 58.9981 86.7345 2820.61 2.48554 -15.9445 1.39121 -7.02756 18.2946 2.38705 18.7582 50.3913 350.953 -52.0209 -80.8739 -404.926 -115.7752 -2.6199 369.224 -45.7003 8.86957 20.3626 0.0 20.9811 0.0 11.1698 -18.3322 -9.27696 0.0 0.0 0.0 0.0 0.0 0.0 120.4562 -5.91014 -365.646 47.4423 5.29636 -15.5497 0.0 23.6143 0.0 3.59219 -9.59309 22.4292 0.0 0.0 0.0 0.0 0.0 0.0 -4.66397 1.48573 -10.2003 0.0 16.1604 0.0 -8.24194 -6.2397995 14.9281 0.0 -22.19308 0.0 3.10015 1.48493 11.934 0.0 21.5862 0.0 26.3535 -14.637899 -8.20431 0.0 -18.25044 0.0 
  -2.8491500854492187 -1.2824299621582032 9.274860229492187 59.0201 86.7418 2820.51 2.46803 -15.8864 1.3968 -6.99896 18.3019 2.41728 18.8296 50.354 350.891 -52.6648 -80.9857 -405.582 -115.798004 -2.59933 369.304 -45.7489 8.91405 20.2123 0.0 20.9052 0.0 11.6526 -18.4408 -9.44255 0.0 0.0 0.0 0.0 0.0 0.0 120.4134 -5.95293 -365.648 47.5216 5.29683 -15.5121 0.0 23.5314 0.0 3.31253 -9.62026 22.5558 0.0 0.0 0.0 0.0 0.0 0.0 -4.66338 1.48905 -10.1676 0.0 16.1082 0.0 -8.25887 -6.2269 14.9539 0.0 -22.1807 0.0 3.08918 1.43207 11.9399 0.0 21.605 0.0 26.3422 -14.584999 -8.16074 0.0 -18.27906 0.0 
  -2.8489498901367187 -1.2796299743652344 9.275430297851562 59.3483 86.7509 2820.11 2.43841 -15.8562 1.39903 -6.9863 18.302 2.44747 18.8951 50.3571 350.856 -53.2086 -81.0898 -406.193 -115.798096 -2.60234 369.38 -45.8395 8.94464 20.0152 0.0 20.8809 0.0 11.7414 -18.6875 -10.202 0.0 0.0 0.0 0.0 0.0 0.0 120.3993 -5.98275 -365.656 47.6117 5.27087 -15.4394 0.0 23.5054 0.0 2.96301 -9.69158 22.21 0.0 0.0 0.0 0.0 0.0 0.0 -4.66057 1.46724 -10.0743 0.0 16.0808 0.0 -8.25304 -6.186899 14.9259 0.0 -22.21223 0.0 3.08795 1.37967 12.0266 0.0 21.6165 0.0 26.3383 -14.567699 -8.18104 0.0 -18.29053 0.0 
  -2.8481201171875 -1.2761900329589844 9.275919799804688 59.4516 86.7515 2819.96 2.41488 -15.8235 1.38492 -6.98255 18.3396 2.45836 18.9862 50.3278 350.78 -53.4815 -81.1686 -406.495 -115.811005 -2.64308 369.377 -45.9364 8.97597 19.8258 0.0 20.8869 0.0 11.6228 -18.9349 -11.1807 0.0 0.0 0.0 0.0 0.0 0.0 120.4389 -6.00816 -365.645 47.6204 5.30176 -15.4508 0.0 23.6012 0.0 2.59563 -10.1749 22.2455 0.0 0.0 0.0 0.0 0.0 0.0 -4.66806 1.47737 -10.0766 0.0 16.0122 0.0 -8.25251 -6.1576004 14.9734 0.0 -22.218689 0.0 3.07567 1.36239 12.0593 0.0 21.5816 0.0 26.3327 -14.5581 -8.18388 0.0 -18.25851 0.0 
  -2.847950134277344 -1.272979965209961 9.27656005859375 59.5435 86.7601 2819.84 2.39463 -15.7923 1.37767 -7.00236 18.3609 2.46187 19.1879 50.2998 350.596 -53.4562 -81.2491 -406.444 -115.8108 -2.6531 369.373 -46.0357 8.97786 19.6099 0.0 20.881 0.0 11.2504 -19.0782 -12.4861 0.0 0.0 0.0 0.0 0.0 0.0 120.4212 -6.00356 -365.631 47.7885 5.2449 -15.1903 0.0 23.5806 0.0 2.24679 -10.2085 21.894 0.0 0.0 0.0 0.0 0.0 0.0 -4.65838 1.46355 -10.0198 0.0 15.9776 0.0 -8.29707 -6.1382008 14.927 0.0 -22.209179 0.0 3.08003 1.34442 12.0896 0.0 21.5497 0.0 26.3351 -14.537399 -8.21115 0.0 -18.28136 0.0 
  -2.84760009765625 -1.2690699768066407 9.2768701171875 59.3487 86.7714 2820.02 2.39302 -15.7461 1.36856 -7.02557 18.3827 2.44549 19.2775 50.278 350.541 -53.3326 -81.3058 -406.352 -115.8075 -2.68082 369.378 -46.1322 9.00265 19.3754 0.0 20.9028 0.0 10.8243 -19.2849 -13.7228 0.0 0.0 0.0 0.0 0.0 0.0 120.4151 -6.01638 -365.639 47.915 5.2892 -15.0692 0.0 23.5505 0.0 2.01833 -10.3072 21.7742 0.0 0.0 0.0 0.0 0.0 0.0 -4.64857 1.44055 -10.0122 0.0 15.9843 0.0 -8.27085 -6.1254005 14.954 0.0 -22.20178 0.0 3.10054 1.32252 12.1592 0.0 21.548 0.0 26.3029 -14.526699 -8.28268 0.0 -18.27713 0.0 
  -2.8468899536132812 -1.2641300201416015 9.277459716796875 59.9722 86.8154 2819.33 2.42232 -15.7433 1.39776 -7.07219 18.4039 2.44327 19.4534 50.2392 350.377 -53.2765 -81.375 -406.291 -115.8012 -2.68043 369.41 -46.2295 9.03218 19.1214 0.0 20.9226 0.0 10.1947 -19.3473 -14.8436 0.0 0.0 0.0 0.0 0.0 0.0 120.393 -5.99074 -365.606 48.0512 5.35932 -15.0796 0.0 23.3947 0.0 1.88287 -10.2386 22.4568 0.0 0.0 0.0 0.0 0.0 0.0 -4.63945 1.3511 -9.98497 0.0 16.0085 0.0 -8.26316 -6.1175995 14.9874 0.0 -22.21127 0.0 3.10843 1.22678 12.178 0.0 21.5514 0.0 26.3324 -14.4783 -8.24442 0.0 -18.270649 0.0 
  -2.8469198608398436 -1.2604900360107423 9.27781005859375 60.048 86.8325 2819.19 2.40373 -15.751 1.38363 -7.05069 18.4821 2.46955 19.5279 50.1635 350.281 -53.0937 -81.3818 -406.138 -115.7966 -2.68969 369.401 -46.3403 9.05197 19.0532 0.0 20.9807 0.0 10.1192 -19.5868 -14.7388 0.0 0.0 0.0 0.0 0.0 0.0 120.4615 -5.95296 -365.606 47.9794 5.39793 -14.9906 0.0 23.5175 0.0 1.8436 -10.5536 23.2213 0.0 0.0 0.0 0.0 0.0 0.0 -4.6223 1.33521 -9.89241 0.0 15.9752 0.0 -8.24727 -6.097601 14.9728 0.0 -22.219471 0.0 3.11092 1.18388 12.19 0.0 21.5503 0.0 26.3301 -14.4359 -8.20698 0.0 -18.26647 0.0 
